<svg width="96" height="12" viewBox="0 0 96 12" fill="none" xmlns="http://www.w3.org/2000/svg">
<path d="M7.75378 11.8385L7.00145 9.76886H2.04158L1.23466 11.8385H0L4.63831 0L9.00664 11.8385H7.75378ZM4.58371 2.96876L2.38134 8.79655H6.64349L4.58371 2.96876Z" fill="#EAE9E8"/>
<path d="M15.3984 11.8385V0.414551H16.5967V10.8296H20.1247V11.8385H15.3984Z" fill="#EAE9E8"/>
<path d="M26.7285 11.8385V0.414551H27.9268V10.8296H31.4548V11.8385H26.7285Z" fill="#EAE9E8"/>
<path d="M38.0625 11.8385V0.414551H43.6837V1.47526H39.2608V4.19103H42.27V5.21516H39.2608V10.8448H43.8809V11.8354H38.0625V11.8385Z" fill="#EAE9E8"/>
<path d="M56.1639 11.9999C52.9605 11.9816 50.0938 10.2016 50.0938 6.3855C50.0938 2.80409 52.8877 0.234619 56.5916 0.234619C56.7888 0.234619 56.986 0.234619 57.1832 0.252907V1.31361C56.9678 1.29533 56.7524 1.27704 56.5401 1.27704C53.64 1.29533 51.2586 3.11194 51.2586 6.3855C51.2586 9.62248 53.819 11.0093 56.1275 11.0093C56.2883 11.0093 56.4491 11.0093 56.6098 10.991V4.71214H54.1557V3.7764H57.7353V11.8536C57.2196 11.9451 56.6826 11.9999 56.1639 11.9999Z" fill="#EAE9E8"/>
<path d="M70.4693 9.08613L72.2773 11.8385H70.9516L69.4652 9.51894C68.9829 9.71706 68.2821 9.87861 67.5662 9.87861C67.2082 9.87861 66.8139 9.84203 66.4741 9.77193V11.8415H65.291V0.414551H67.4024C71.1094 0.414551 72.5594 2.60911 72.5594 5.3066C72.5625 6.65687 72.0619 8.07724 70.4693 9.08613ZM67.639 1.4021H66.4741V8.7417C66.8685 8.86667 67.19 8.92154 67.6208 8.92154C68.0698 8.92154 68.6067 8.84838 68.9283 8.68684L67.909 7.15674L68.8221 6.58067L69.896 8.21745C70.7909 7.67795 71.4522 6.68735 71.4522 5.44681C71.4522 2.53596 69.5562 1.4021 67.639 1.4021Z" fill="#EAE9E8"/>
<path d="M79.5469 11.8385V0.414551H80.73V11.8385H79.5469Z" fill="#EAE9E8"/>
<path d="M94.7479 11.8385L93.9956 9.76886H89.0357L88.2288 11.8385H86.9941L91.6325 0L96.0008 11.8385H94.7479ZM91.5779 2.96876L89.3755 8.79655H93.6376L91.5779 2.96876Z" fill="#EAE9E8"/>
</svg>
